<?xml version="1.0" encoding="utf-8"?>
<!-- Generator: Adobe Illustrator 25.4.1, SVG Export Plug-In . SVG Version: 6.00 Build 0)  -->
<svg version="1.1" id="Capa_1" xmlns="http://www.w3.org/2000/svg" xmlns:xlink="http://www.w3.org/1999/xlink" x="0px" y="0px"
	 viewBox="0 0 649 159" style="enable-background:new 0 0 649 159;" xml:space="preserve">
<style type="text/css">
	.st0{fill:#E0046C;}
</style>
<g transform="translate(0.000000,159.000000) scale(0.100000,-0.100000)">
	<path class="st0" d="M1047,1538c-14-18-43-69-63-112c-31-64-38-93-42-157c-7-127,12-160,171-293c124-103,182-162,250-254
		c83-113,127-229,127-337v-59l30,34c51,60,99,162,112,239c31,182-45,347-277,601c-119,130-214,249-251,316l-32,56L1047,1538z"/>
	<path class="st0" d="M6057,1230c-134-17-225-100-235-214c-5-67,9-112,53-163c41-48,112-81,259-121c117-32,156-54,171-96
		c13-38-19-95-65-118c-42-22-137-24-183-4c-41,16-86,69-94,108c-3,15-9,31-13,33c-4,3-43,2-85-2l-77-6l6-37c15-93,73-177,148-214
		c133-64,353-50,446,30c76,65,104,152,83,256c-23,108-95,161-286,213c-132,35-182,58-197,89c-27,60,33,107,138,108
		c83,0,123-22,144-81l15-43l50,6c28,3,65,6,83,6c29,0,32,3,32,32c0,46-36,113-81,152C6304,1219,6180,1245,6057,1230z"/>
	<path class="st0" d="M331,1198c-12-31-312-800-318-815c-4-10,17-13,85-13h90l18,47c10,27,25,68,35,93l17,45l174,3l174,2l34-95
		l35-95h93c50,0,92,1,92,3c0,1-76,191-168,422l-168,420l-92,3C344,1221,339,1220,331,1198z M489,866c28-77,51-145,51-153
		c0-10-25-13-110-13c-81,0-110,3-110,13c0,23,105,306,111,299C435,1008,461,942,489,866z"/>
	<path class="st0" d="M1840,795V370h325h325v70v70h-240h-241l3,117l3,118l213,3l212,2v70v70h-215h-216l3,93l3,92l233,3l232,2v70v70
		h-320h-320V795z"/>
	<path class="st0" d="M2560,1213c0-4,67-195,149-423l149-415h93h94l151,423l152,423l-91-3l-90-3l-99-295c-115-346-107-324-114-318
		c-2,3-51,142-108,309l-104,304l-91,3C2601,1219,2560,1217,2560,1213z"/>
	<path class="st0" d="M3440,795V370h325h325v70v70h-240h-240v120v120h215h215v70v70h-215h-215v95v95h230h230v70v70h-315h-315V795z"
		/>
	<path class="st0" d="M4240,795V370h80h80v277v277l171-277l171-277h84h84v425v425h-75h-75V939c0-154-4-278-8-275
		c-5,3-85,129-177,281l-169,275h-83h-83V795z"/>
	<path class="st0" d="M5040,1150v-70h125h125V725V370h85h85v355v355h130h130v70v70h-340h-340V1150z"/>
	<path class="st0" d="M1072,808c-28-35-64-127-69-174c-7-70,20-127,84-176c70-53,178-165,214-223c40-63,69-143,69-191
		c0-35,1-36,18-21c26,24,59,94,73,154c10,43,9,63-5,120c-22,92-59,148-204,315c-68,79-131,158-140,176C1095,823,1088,827,1072,808z"
		/>
</g>
</svg>
