<?xml version="1.0" encoding="utf-8"?>
<!-- Generator: Adobe Illustrator 25.4.1, SVG Export Plug-In . SVG Version: 6.00 Build 0)  -->
<svg version="1.1" id="Capa_1" xmlns="http://www.w3.org/2000/svg" xmlns:xlink="http://www.w3.org/1999/xlink" x="0px" y="0px"
	 viewBox="0 0 143 159" style="enable-background:new 0 0 143 159;" xml:space="preserve">
<style type="text/css">
	.st0{fill:#E0046C;}
</style>
<path class="st0" d="M54.7,5.2c-1.4,1.8-4.3,6.9-6.3,11.2c-3.1,6.4-3.8,9.3-4.2,15.7c-0.7,12.7,1.2,16,17.1,29.3
	c12.4,10.3,18.2,16.2,25,25.4C94.6,98.1,99,109.7,99,120.5v5.9l3-3.4c5.1-6,9.9-16.2,11.2-23.9c3.1-18.2-4.5-34.7-27.7-60.1
	C73.6,26,64.1,14.1,60.4,7.4l-3.2-5.6L54.7,5.2z"/>
<path class="st0" d="M57.2,78.2c-2.8,3.5-6.4,12.7-6.9,17.4c-0.7,7,2,12.7,8.4,17.6c7,5.3,17.8,16.5,21.4,22.3
	c4,6.3,6.9,14.3,6.9,19.1c0,3.5,0.1,3.6,1.8,2.1c2.6-2.4,5.9-9.4,7.3-15.4c1-4.3,0.9-6.3-0.5-12c-2.2-9.2-5.9-14.8-20.4-31.5
	c-6.8-7.9-13.1-15.8-14-17.6C59.5,76.7,58.8,76.3,57.2,78.2z"/>
</svg>
